<svg xmlns="http://www.w3.org/2000/svg" xmlns:xlink="http://www.w3.org/1999/xlink" width="192" zoomAndPan="magnify" viewBox="0 0 144 111.749996" height="149" preserveAspectRatio="xMidYMid meet" version="1.0"><defs><clipPath id="10b36bd398"><path d="M 0.160156 48 L 4 48 L 4 56 L 0.160156 56 Z M 0.160156 48 " clip-rule="nonzero"/></clipPath><clipPath id="081c6a556c"><path d="M 54 0 L 59 0 L 59 111.5 L 54 111.5 Z M 54 0 " clip-rule="nonzero"/></clipPath><clipPath id="0e143c2b96"><path d="M 141 51 L 143.089844 51 L 143.089844 54 L 141 54 Z M 141 51 " clip-rule="nonzero"/></clipPath></defs><g clip-path="url(#10b36bd398)"><path fill="#3772a5" d="M 0.164062 48.539062 L 3.519531 48.539062 L 3.519531 55.554688 L 0.164062 55.554688 Z M 0.164062 48.539062 " fill-opacity="1" fill-rule="nonzero"/></g><path fill="#3772a5" d="M 7.984375 46.625 L 11.339844 46.625 L 11.339844 57.789062 L 7.984375 57.789062 Z M 7.984375 46.625 " fill-opacity="1" fill-rule="nonzero"/><path fill="#3772a5" d="M 15.804688 42.796875 L 19.160156 42.796875 L 19.160156 62.570312 L 15.804688 62.570312 Z M 15.804688 42.796875 " fill-opacity="1" fill-rule="nonzero"/><path fill="#3772a5" d="M 23.625 38.96875 L 26.980469 38.96875 L 26.980469 68.3125 L 23.625 68.3125 Z M 23.625 38.96875 " fill-opacity="1" fill-rule="nonzero"/><path fill="#3772a5" d="M 31.445312 29.082031 L 34.800781 29.082031 L 34.800781 77.5625 L 31.445312 77.5625 Z M 31.445312 29.082031 " fill-opacity="1" fill-rule="nonzero"/><path fill="#3772a5" d="M 39.265625 20.46875 L 42.621094 20.46875 L 42.621094 86.492188 L 39.265625 86.492188 Z M 39.265625 20.46875 " fill-opacity="1" fill-rule="nonzero"/><path fill="#3772a5" d="M 47.085938 5.796875 L 50.441406 5.796875 L 50.441406 97.339844 L 47.085938 97.339844 Z M 47.085938 5.796875 " fill-opacity="1" fill-rule="nonzero"/><g clip-path="url(#081c6a556c)"><path fill="#3772a5" d="M 54.902344 0.0546875 L 58.261719 0.0546875 L 58.261719 111.375 L 54.902344 111.375 Z M 54.902344 0.0546875 " fill-opacity="1" fill-rule="nonzero"/></g><path fill="#3772a5" d="M 62.722656 23.339844 L 66.078125 23.339844 L 66.078125 84.582031 L 62.722656 84.582031 Z M 62.722656 23.339844 " fill-opacity="1" fill-rule="nonzero"/><path fill="#3772a5" d="M 70.542969 18.234375 L 73.902344 18.234375 L 73.902344 92.875 L 70.542969 92.875 Z M 70.542969 18.234375 " fill-opacity="1" fill-rule="nonzero"/><path fill="#3772a5" d="M 78.363281 29.082031 L 81.71875 29.082031 L 81.71875 77.5625 L 78.363281 77.5625 Z M 78.363281 29.082031 " fill-opacity="1" fill-rule="nonzero"/><path fill="#3772a5" d="M 86.183594 36.097656 L 89.539062 36.097656 L 89.539062 68.3125 L 86.183594 68.3125 Z M 86.183594 36.097656 " fill-opacity="1" fill-rule="nonzero"/><path fill="#3772a5" d="M 94.003906 38.96875 L 97.359375 38.96875 L 97.359375 62.570312 L 94.003906 62.570312 Z M 94.003906 38.96875 " fill-opacity="1" fill-rule="nonzero"/><path fill="#3772a5" d="M 101.824219 45.1875 L 105.179688 45.1875 L 105.179688 60.179688 L 101.824219 60.179688 Z M 101.824219 45.1875 " fill-opacity="1" fill-rule="nonzero"/><path fill="#3772a5" d="M 109.644531 48.058594 L 113 48.058594 L 113 55.394531 L 109.644531 55.394531 Z M 109.644531 48.058594 " fill-opacity="1" fill-rule="nonzero"/><path fill="#3772a5" d="M 117.464844 49.574219 L 120.820312 49.574219 L 120.820312 54.996094 L 117.464844 54.996094 Z M 117.464844 49.574219 " fill-opacity="1" fill-rule="nonzero"/><path fill="#3772a5" d="M 128.734375 52.683594 C 128.734375 52.957031 128.679688 53.222656 128.574219 53.476562 C 128.46875 53.730469 128.320312 53.957031 128.125 54.148438 C 127.929688 54.34375 127.707031 54.496094 127.453125 54.601562 C 127.199219 54.703125 126.933594 54.757812 126.660156 54.757812 C 126.382812 54.757812 126.121094 54.703125 125.867188 54.601562 C 125.613281 54.496094 125.386719 54.34375 125.191406 54.148438 C 125 53.957031 124.847656 53.730469 124.742188 53.476562 C 124.636719 53.222656 124.585938 52.957031 124.585938 52.683594 C 124.585938 52.410156 124.636719 52.144531 124.742188 51.890625 C 124.847656 51.636719 125 51.410156 125.191406 51.21875 C 125.386719 51.023438 125.613281 50.875 125.867188 50.769531 C 126.121094 50.664062 126.382812 50.609375 126.660156 50.609375 C 126.933594 50.609375 127.199219 50.664062 127.453125 50.769531 C 127.707031 50.875 127.929688 51.023438 128.125 51.21875 C 128.320312 51.410156 128.46875 51.636719 128.574219 51.890625 C 128.679688 52.144531 128.734375 52.410156 128.734375 52.683594 Z M 128.734375 52.683594 " fill-opacity="1" fill-rule="nonzero"/><path fill="#3772a5" d="M 136.167969 52.683594 C 136.167969 52.851562 136.136719 53.011719 136.074219 53.167969 C 136.007812 53.320312 135.917969 53.457031 135.800781 53.574219 C 135.683594 53.691406 135.546875 53.785156 135.390625 53.847656 C 135.238281 53.914062 135.078125 53.945312 134.910156 53.945312 C 134.742188 53.945312 134.582031 53.914062 134.425781 53.847656 C 134.273438 53.785156 134.136719 53.691406 134.019531 53.574219 C 133.898438 53.457031 133.808594 53.320312 133.746094 53.167969 C 133.679688 53.011719 133.648438 52.851562 133.648438 52.683594 C 133.648438 52.515625 133.679688 52.355469 133.746094 52.203125 C 133.808594 52.046875 133.898438 51.910156 134.019531 51.792969 C 134.136719 51.675781 134.273438 51.582031 134.425781 51.519531 C 134.582031 51.457031 134.742188 51.421875 134.910156 51.421875 C 135.078125 51.421875 135.238281 51.457031 135.390625 51.519531 C 135.546875 51.582031 135.683594 51.675781 135.800781 51.792969 C 135.917969 51.910156 136.007812 52.046875 136.074219 52.203125 C 136.136719 52.355469 136.167969 52.515625 136.167969 52.683594 Z M 136.167969 52.683594 " fill-opacity="1" fill-rule="nonzero"/><g clip-path="url(#0e143c2b96)"><path fill="#3772a5" d="M 143.238281 52.683594 C 143.238281 52.929688 143.148438 53.140625 142.976562 53.3125 C 142.800781 53.488281 142.59375 53.574219 142.347656 53.574219 C 142.101562 53.574219 141.890625 53.488281 141.714844 53.3125 C 141.542969 53.140625 141.457031 52.929688 141.457031 52.683594 C 141.457031 52.4375 141.542969 52.226562 141.714844 52.054688 C 141.890625 51.878906 142.101562 51.792969 142.347656 51.792969 C 142.59375 51.792969 142.800781 51.878906 142.976562 52.054688 C 143.148438 52.226562 143.238281 52.4375 143.238281 52.683594 Z M 143.238281 52.683594 " fill-opacity="1" fill-rule="nonzero"/></g></svg>